PathFileType	4	(X/Y/Z)	13_coords_data.trc
DataRate	CameraRate	NumFrames	NumMarkers	Units	OrigDataRate	OrigDataStartFrame	OrigNumFrames
30.0	30.0	7	21	m	30.0	41	51
Frame#	Time	THUMB_TIP	THUMB_IP	THUMB_MCP	THUMB_CMC	INDEX_TIP	INDEX_DIP	INDEX_PIP	INDEX_MCP	MIDDLE_TIP	MIDDLE_DIP	MIDDLE_PIP	MIDDLE_MCP	RING_TIP	RING_DIP	RING_PIP	RING_MCP	PINKY_TIP	PINKY_DIP	PINKY_PIP	PINKY_MCP	WRIST
X1	Y1	Z1	X2	Y2	Z2	X3	Y3	Z3	X4	Y4	Z4	X5	Y5	Z5	X6	Y6	Z6	X7	Y7	Z7	X8	Y8	Z8	X9	Y9	Z9	X10	Y10	Z10	X11	Y11	Z11	X12	Y12	Z12	X13	Y13	Z13	X14	Y14	Z14	X15	Y15	Z15	X16	Y16	Z16	X17	Y17	Z17	X18	Y18	Z18	X19	Y19	Z19	X20	Y20	Z20	X21	Y21	Z21
39	1.3333333333333275	0.523448905793024	-0.01260339153361223	-0.15444730714604427	0.5085178931797714	-0.017750521366240113	-0.13775683331127986	0.484960371224305	-0.027153491752576864	-0.11971667512928497	0.47602161980776375	-0.030086542291253293	-0.07611179079678326	0.5699434272920663	0.010389094305090163	-0.14994824431711345	0.5542923915441823	0.01878728928339546	-0.1464105330336954	0.531185595344551	0.025753633937220854	-0.1393709418131181	0.4946588179226357	0.015486265812518996	-0.12003155772360491	0.5869311187970863	0.013539380512746835	-0.1328516829850212	0.5719568857067361	0.021980690309064355	-0.12714934729879057	0.5460427809809085	0.031530116612860315	-0.11783928910739294	0.5055014429177156	0.02713290244438593	-0.09958518445658976	0.5900983453992636	0.011807956559850563	-0.11202049813172738	0.576275779615795	0.02078538800580021	-0.10471690998651018	0.5551475059448523	0.029857812390027938	-0.09515306418692598	0.517497386463287	0.027427421516190154	-0.08061750306173265	0.5924116616600639	0.0004885662467790652	-0.07772560443489307	0.5783630185194129	0.008701333661942812	-0.07241654827668004	0.5592855742125487	0.015728160064043095	-0.06717375813847665	0.5238595355264553	0.016894840656783927	-0.0605015703109385	0.4622830810018609	-0.023011742144276925	-0.051989820119430985
40	1.3666666666666607	0.5239969401821243	-0.013391526648698027	-0.15406710760914155	0.5088339344340392	-0.018446838316791503	-0.13755871336191144	0.4851894580755371	-0.027781609811424857	-0.11959706591867242	0.47617255777473066	-0.030241577254627283	-0.07597901840226351	0.5694494429752981	0.008851344330863875	-0.14994685565085714	0.5538899971329909	0.017508373662850962	-0.1466363438738919	0.5308371599264572	0.024879981625907543	-0.13983664345636948	0.4941925982594554	0.015106993445344719	-0.12046395917525121	0.5861915964797364	0.012266865021929751	-0.1332267748556995	0.5713648511254713	0.021066253202469465	-0.12768255355348246	0.5455614884763249	0.031032625013945103	-0.11850282267986406	0.5050471378839931	0.027032940463886934	-0.10009799068982272	0.5891170287596277	0.010363909934140492	-0.11233908803780207	0.5755836504168139	0.019908111122073247	-0.10521477092564835	0.5546833713104734	0.029601609683332586	-0.09575990985210914	0.517056520782108	0.027634644045085865	-0.08109457659663877	0.5914751682912517	-0.0010618540641451624	-0.07812398321575575	0.5777315817849612	0.0076856405171648046	-0.07287087285197474	0.5588826737766989	0.015301026990028554	-0.06762334250284979	0.5235174673736921	0.01734494022626698	-0.0608404194046962	0.46228308100186083	-0.023011742144276925	-0.051989820119430985
41	1.3999999999999937	0.5243196934656418	-0.013761383661447413	-0.15379238632465264	0.5089973929417011	-0.018818832837829813	-0.13743239505074428	0.4853372760785109	-0.028187924271915854	-0.1195092537044311	0.4763022096611393	-0.030325421871179592	-0.07587797273713859	0.5689118391323253	0.008126337808178064	-0.15006899363040266	0.5534020858350945	0.01693273141944407	-0.14692336424624186	0.5303724365988507	0.024496180532213363	-0.14025708143089988	0.49373076840039143	0.014916829690329925	-0.12078247532237674	0.5855928521224336	0.012572648895493477	-0.13379182109819804	0.5707705245852993	0.0214074063894093	-0.12829221507543537	0.5449422152185313	0.03129970393770609	-0.1191025233248661	0.5045375131434825	0.02706869555062108	-0.10050933803414791	0.5883792698557424	0.010249402158218568	-0.11281543488286278	0.5749600435784276	0.020018661122498504	-0.10578081013046398	0.5541502026861408	0.02992689058486342	-0.0963490822951818	0.516595651068227	0.027890506232615575	-0.08150894666415132	0.5906590588648878	-0.0018663770783101663	-0.07857613150856968	0.5771340511958967	0.007231576014804841	-0.07335105571302325	0.5584628779526263	0.0152562536531744	-0.06807811938493818	0.5231571262895495	0.017815607632457597	-0.06116168549789214	0.46228308100186083	-0.023011742144276925	-0.051989820119430985
43	1.433333333333334	0.5243932829827355	-0.01369745081288154	-0.15365781811205426	0.5089961579939289	-0.018828185140293274	-0.13739116180718974	0.4853598312342278	-0.02828066669839513	-0.11948042062480485	0.4763730566872761	-0.030329747266649387	-0.0758349265610751	0.5684515092859903	0.008431856049419872	-0.1503707736046438	0.5529165353955159	0.017201219199306728	-0.14724621664921983	0.5298681670284837	0.024695032856191235	-0.14056599917570262	0.49335385472466275	0.014954782587167426	-0.12093264450372121	0.5852237911968547	0.014110057445927748	-0.13438677926331044	0.5702920133480468	0.022715346746290277	-0.128819822614394	0.5443375405667451	0.03215797672130227	-0.11951328556779717	0.5041019510265812	0.02722145944794585	-0.10072829015748896	0.587978786878821	0.011083137780935837	-0.113280623287847	0.5745249342305057	0.02080508101291756	-0.1062465868427081	0.5536884588975772	0.030610669904184373	-0.09676651821448956	0.5162238742240024	0.028135177985904924	-0.08176659591472135	0.5901545442666221	-0.002151866891485388	-0.07898034892117778	0.576740706466507	0.007108102771831382	-0.07375331177699601	0.5581636728876407	0.015323211975293294	-0.06844126667318995	0.5229017030153018	0.018139566948994212	-0.06140244032326647	0.4622830810018609	-0.023011742144276925	-0.051989820119430985
44	1.4666666666666672	0.5243658545515426	-0.013358560196726654	-0.15356618639784209	0.5089177925576122	-0.018601983373441433	-0.13738397721548457	0.4853266473875553	-0.028189108804053564	-0.11948523716086024	0.4764209580798446	-0.030270575505214614	-0.07582465775189584	0.5679775233272901	0.009373772769453614	-0.15076381904552644	0.5523833208434934	0.018019490798654725	-0.14759011322206178	0.5292948740442358	0.025298010293352213	-0.14081098264630465	0.4929966054988759	0.015160245949445761	-0.12097925229526474	0.5849409125244575	0.016889611037306462	-0.13508524161641827	0.5697988348125018	0.02500616216925522	-0.1293547023496862	0.5436372911099601	0.03362083832996976	-0.11982734512189153	0.5036673389165718	0.027480653049701598	-0.10083132008026152	0.5877539598681061	0.012934014070842825	-0.11385263690851921	0.5741470836575533	0.022374114922241395	-0.10672961678317094	0.5531861028783178	0.03177437161773422	-0.09711439770967256	0.5158624198057755	0.028415366742394088	-0.08193610392717332	0.5898471471548234	-0.0018427240705732872	-0.07937460339756408	0.5764538029894234	0.007427365180827983	-0.07411306585249255	0.5579032899331458	0.015666077222740493	-0.06874518840984156	0.5226614351317794	0.018447679774985404	-0.06159271971709218	0.46228308100186094	-0.023011742144276925	-0.051989820119430985
45	1.5000000000000004	0.5242572499685241	-0.012748509814523246	-0.15349921498361901	0.5087718079327032	-0.01813916383868608	-0.1374013289687721	0.4852435834258575	-0.02791514627929914	-0.11952193247794246	0.47644806259991435	-0.030145338804803856	-0.0758463666006744	0.5674606694015912	0.010951383238636647	-0.1512422140278608	0.5517802740021842	0.019395125507886912	-0.1479515580736882	0.5286370845424423	0.02631817071746534	-0.14098922659230745	0.49265575483691076	0.015535034109947277	-0.12092174116125648	0.5846472488340335	0.02102254181239993	-0.13586654462995396	0.5692108375393533	0.028360509629897113	-0.12987726799159055	0.5427899107219648	0.035731465612461655	-0.12002774089566864	0.5032305629051288	0.02785025038867117	-0.1008159640933296	0.5876363174723516	0.01590512699158797	-0.11453285811267089	0.573770575995787	0.0248142992951087	-0.1072275270338452	0.5526003495470014	0.03348168705512433	-0.09738487086161829	0.5155058638038739	0.02873836239190941	-0.0820153935578109	0.5897377858270598	-0.0008733166795733549	-0.07976285413552753	0.5762711007739124	0.008247163674034774	-0.07442757234364566	0.5576746365460725	0.016331049167781386	-0.06898382983075396	0.5224274179846145	0.01875503721559124	-0.06172839623758475	0.46228308100186094	-0.023011742144276925	-0.051989820119430985
46	1.5333333333333337	0.5240863093178806	-0.011871168101493912	-0.1534367239821004	0.5085669135347928	-0.017438711628075754	-0.13743201175077618	0.48511600422110485	-0.02746072640737962	-0.11958729062309814	0.47645619262369354	-0.02995139529327484	-0.07589868533981886	0.5668613534891058	0.013165756082664348	-0.15179592159891958	0.5510760981445239	0.021336718880275773	-0.148323014939305	0.5278728529378519	0.027768375535137446	-0.1410943886830216	0.4923275460729102	0.016079913233897236	-0.1207585311178827	0.5841817536313052	0.026635803206355835	-0.13668357879951565	0.5684010501121199	0.032867331000422606	-0.13034816580655706	0.5417180840181254	0.03853249744594944	-0.1200848934448191	0.5027881256299853	0.028333444410721498	-0.10067908044761908	0.5875058339427837	0.020124148604799386	-0.11530155687423371	0.5732992052878876	0.028231419698404037	-0.10772238424942243	0.5518618537055626	0.03580445646800867	-0.09756024617606385	0.5151485355803156	0.02911086666843332	-0.08200232337674918	0.5898092220432684	0.0008356508636370164	-0.08014385371071236	0.5761768946976336	0.009634688583713635	-0.07469072742003091	0.5574613452159711	0.01736968221664925	-0.06914905798763998	0.5221903953306442	0.01907643568559525	-0.061805316585398784	0.4622830810018609	-0.023011742144276925	-0.051989820119430985
